<?xml version="1.0" standalone="no"?><!DOCTYPE svg PUBLIC "-//W3C//DTD SVG 1.1//EN" "http://www.w3.org/Graphics/SVG/1.1/DTD/svg11.dtd"><svg t="1693299411476" class="icon" viewBox="0 0 1024 1024" version="1.1" xmlns="http://www.w3.org/2000/svg" p-id="1607" width="16" height="16" xmlns:xlink="http://www.w3.org/1999/xlink"><path d="M948.6 891.2L800.4 743.1c25.3-30.8 45.9-64.8 61.5-101.7 21.6-51.2 32.6-105.5 32.6-161.5s-11-110.4-32.6-161.5C841 269 811.1 224.6 773 186.5s-82.5-68-131.9-88.9C589.9 75.9 535.6 65 479.6 65S369.2 75.8 318 97.5c-49.4 20.9-93.8 50.8-131.9 88.9-38.1 38.1-68 82.5-88.9 131.9-21.7 51.2-32.6 105.5-32.6 161.5s11 110.4 32.6 161.5c20.9 49.4 50.8 93.8 88.9 131.9 38.1 38.1 82.5 68 131.9 88.9 51.2 21.7 105.5 32.6 161.5 32.6s110.4-11 161.6-32.6c37.3-15.8 71.8-36.7 102.8-62.5l148 148c7.8 7.8 18 11.7 28.3 11.7s20.5-3.9 28.3-11.7c15.7-15.4 15.7-40.8 0.1-56.4z m-469-76.3c-184.7 0-335-150.3-335-335s150.3-335 335-335 335 150.3 335 335c0 89.5-34.8 173.6-98.1 236.8-63.3 63.3-147.4 98.2-236.9 98.2z" p-id="1608"></path></svg>